<mxfile host="65bd71144e">
    <diagram id="E9JoIXbf6vXz6AtUhc0D" name="Page-1">
        <mxGraphModel dx="898" dy="680" grid="1" gridSize="10" guides="1" tooltips="1" connect="1" arrows="1" fold="1" page="1" pageScale="1" pageWidth="827" pageHeight="1169" math="0" shadow="0">
            <root>
                <mxCell id="0"/>
                <mxCell id="1" parent="0"/>
                <mxCell id="2" value="安全登录&lt;br&gt;过程" style="rounded=0;whiteSpace=wrap;html=1;" vertex="1" parent="1">
                    <mxGeometry x="70" y="410" width="70" height="30" as="geometry"/>
                </mxCell>
                <mxCell id="3" value="用户账户" style="shape=cylinder3;whiteSpace=wrap;html=1;boundedLbl=1;backgroundOutline=1;size=6;" vertex="1" parent="1">
                    <mxGeometry x="70" y="300" width="70" height="40" as="geometry"/>
                </mxCell>
                <mxCell id="15" style="edgeStyle=none;html=1;exitX=1;exitY=0.5;exitDx=0;exitDy=0;exitPerimeter=0;entryX=0;entryY=0.75;entryDx=0;entryDy=0;" edge="1" parent="1" source="4" target="6">
                    <mxGeometry relative="1" as="geometry">
                        <Array as="points">
                            <mxPoint x="160" y="370"/>
                        </Array>
                    </mxGeometry>
                </mxCell>
                <mxCell id="4" value="审计记录" style="shape=cylinder3;whiteSpace=wrap;html=1;boundedLbl=1;backgroundOutline=1;size=6;" vertex="1" parent="1">
                    <mxGeometry x="70" y="350" width="70" height="40" as="geometry"/>
                </mxCell>
                <mxCell id="5" value="" style="endArrow=none;html=1;" edge="1" parent="1">
                    <mxGeometry width="50" height="50" relative="1" as="geometry">
                        <mxPoint y="460" as="sourcePoint"/>
                        <mxPoint x="720" y="460" as="targetPoint"/>
                    </mxGeometry>
                </mxCell>
                <mxCell id="18" style="edgeStyle=none;html=1;exitX=0.5;exitY=1;exitDx=0;exitDy=0;entryX=0.5;entryY=0;entryDx=0;entryDy=0;" edge="1" parent="1" source="6" target="7">
                    <mxGeometry relative="1" as="geometry"/>
                </mxCell>
                <mxCell id="6" value="安全账户&lt;br&gt;管理器" style="rounded=0;whiteSpace=wrap;html=1;" vertex="1" parent="1">
                    <mxGeometry x="220" y="340" width="70" height="30" as="geometry"/>
                </mxCell>
                <mxCell id="19" style="edgeStyle=none;html=1;exitX=0.5;exitY=1;exitDx=0;exitDy=0;" edge="1" parent="1" source="7" target="10">
                    <mxGeometry relative="1" as="geometry"/>
                </mxCell>
                <mxCell id="7" value="本地安全&lt;br&gt;授权" style="rounded=0;whiteSpace=wrap;html=1;" vertex="1" parent="1">
                    <mxGeometry x="220" y="410" width="70" height="30" as="geometry"/>
                </mxCell>
                <mxCell id="16" style="edgeStyle=none;html=1;exitX=0.5;exitY=1;exitDx=0;exitDy=0;entryX=0.5;entryY=0;entryDx=0;entryDy=0;" edge="1" parent="1" source="8" target="9">
                    <mxGeometry relative="1" as="geometry"/>
                </mxCell>
                <mxCell id="8" value="应用软件&lt;br&gt;APPs" style="rounded=0;whiteSpace=wrap;html=1;" vertex="1" parent="1">
                    <mxGeometry x="350" y="305" width="90" height="30" as="geometry"/>
                </mxCell>
                <mxCell id="17" style="edgeStyle=none;html=1;exitX=0.5;exitY=1;exitDx=0;exitDy=0;entryX=1;entryY=0.5;entryDx=0;entryDy=0;" edge="1" parent="1" source="9" target="7">
                    <mxGeometry relative="1" as="geometry">
                        <Array as="points">
                            <mxPoint x="395" y="425"/>
                        </Array>
                    </mxGeometry>
                </mxCell>
                <mxCell id="9" value="上下文环境&lt;br&gt;子系统" style="rounded=0;whiteSpace=wrap;html=1;" vertex="1" parent="1">
                    <mxGeometry x="350" y="355" width="90" height="30" as="geometry"/>
                </mxCell>
                <mxCell id="10" value="OS Runtime" style="rounded=0;whiteSpace=wrap;html=1;" vertex="1" parent="1">
                    <mxGeometry x="145" y="490" width="220" height="30" as="geometry"/>
                </mxCell>
                <mxCell id="11" value="用户模式" style="text;html=1;strokeColor=none;fillColor=none;align=center;verticalAlign=middle;whiteSpace=wrap;rounded=0;" vertex="1" parent="1">
                    <mxGeometry y="420" width="60" height="30" as="geometry"/>
                </mxCell>
                <mxCell id="12" value="内核模式" style="text;html=1;strokeColor=none;fillColor=none;align=center;verticalAlign=middle;whiteSpace=wrap;rounded=0;" vertex="1" parent="1">
                    <mxGeometry y="470" width="60" height="30" as="geometry"/>
                </mxCell>
                <mxCell id="13" value="" style="endArrow=classic;startArrow=classic;html=1;exitX=1;exitY=0.5;exitDx=0;exitDy=0;entryX=0;entryY=0.5;entryDx=0;entryDy=0;" edge="1" parent="1" source="2" target="7">
                    <mxGeometry width="50" height="50" relative="1" as="geometry">
                        <mxPoint x="230" y="360" as="sourcePoint"/>
                        <mxPoint x="280" y="310" as="targetPoint"/>
                    </mxGeometry>
                </mxCell>
                <mxCell id="14" value="" style="endArrow=classic;startArrow=classic;html=1;exitX=1;exitY=0.5;exitDx=0;exitDy=0;exitPerimeter=0;entryX=0;entryY=0.25;entryDx=0;entryDy=0;" edge="1" parent="1" source="3" target="6">
                    <mxGeometry width="50" height="50" relative="1" as="geometry">
                        <mxPoint x="230" y="360" as="sourcePoint"/>
                        <mxPoint x="280" y="310" as="targetPoint"/>
                        <Array as="points">
                            <mxPoint x="170" y="320"/>
                            <mxPoint x="170" y="348"/>
                        </Array>
                    </mxGeometry>
                </mxCell>
                <mxCell id="42" value="操作系统安全子系统（SSOOS）功能" style="swimlane;horizontal=0;" vertex="1" parent="1">
                    <mxGeometry x="750" y="723" width="400" height="240" as="geometry"/>
                </mxCell>
                <mxCell id="20" value="安全审计" style="rounded=0;whiteSpace=wrap;html=1;" vertex="1" parent="42">
                    <mxGeometry x="312" y="183" width="70" height="30" as="geometry"/>
                </mxCell>
                <mxCell id="21" value="密码支持" style="rounded=0;whiteSpace=wrap;html=1;" vertex="1" parent="42">
                    <mxGeometry x="42" y="183" width="70" height="30" as="geometry"/>
                </mxCell>
                <mxCell id="22" value="用户数据&lt;br&gt;保护" style="rounded=0;whiteSpace=wrap;html=1;" vertex="1" parent="42">
                    <mxGeometry x="132" y="183" width="70" height="30" as="geometry"/>
                </mxCell>
                <mxCell id="28" value="可信路径/&lt;br&gt;信道" style="rounded=0;whiteSpace=wrap;html=1;" vertex="1" parent="42">
                    <mxGeometry x="132" y="133" width="70" height="30" as="geometry"/>
                </mxCell>
                <mxCell id="29" value="身份鉴别" style="rounded=0;whiteSpace=wrap;html=1;" vertex="1" parent="42">
                    <mxGeometry x="222" y="33" width="70" height="30" as="geometry"/>
                </mxCell>
                <mxCell id="30" value="身份标识" style="rounded=0;whiteSpace=wrap;html=1;" vertex="1" parent="42">
                    <mxGeometry x="132" y="33" width="70" height="30" as="geometry"/>
                </mxCell>
                <mxCell id="31" value="安全授权" style="rounded=0;whiteSpace=wrap;html=1;" vertex="1" parent="42">
                    <mxGeometry x="312" y="33" width="70" height="30" as="geometry"/>
                </mxCell>
                <mxCell id="32" value="存储介质&lt;br&gt;管理" style="rounded=0;whiteSpace=wrap;html=1;" vertex="1" parent="42">
                    <mxGeometry x="222" y="133" width="70" height="30" as="geometry"/>
                </mxCell>
                <mxCell id="33" value="应用软件安全管理" style="rounded=0;whiteSpace=wrap;html=1;" vertex="1" parent="42">
                    <mxGeometry x="42" y="83" width="70" height="30" as="geometry"/>
                </mxCell>
                <mxCell id="34" value="用户策略&lt;br&gt;管理" style="rounded=0;whiteSpace=wrap;html=1;" vertex="1" parent="42">
                    <mxGeometry x="42" y="33" width="70" height="30" as="geometry"/>
                </mxCell>
                <mxCell id="35" value="运行安全&lt;br&gt;保护" style="rounded=0;whiteSpace=wrap;html=1;" vertex="1" parent="42">
                    <mxGeometry x="222" y="83" width="70" height="30" as="geometry"/>
                </mxCell>
                <mxCell id="36" value="升级管理" style="rounded=0;whiteSpace=wrap;html=1;" vertex="1" parent="42">
                    <mxGeometry x="312" y="83" width="70" height="30" as="geometry"/>
                </mxCell>
                <mxCell id="37" value="超时锁定与注销" style="rounded=0;whiteSpace=wrap;html=1;" vertex="1" parent="42">
                    <mxGeometry x="42" y="133" width="70" height="30" as="geometry"/>
                </mxCell>
                <mxCell id="38" value="运行监控" style="rounded=0;whiteSpace=wrap;html=1;" vertex="1" parent="42">
                    <mxGeometry x="132" y="83" width="70" height="30" as="geometry"/>
                </mxCell>
                <mxCell id="39" value="可靠时钟" style="rounded=0;whiteSpace=wrap;html=1;" vertex="1" parent="42">
                    <mxGeometry x="312" y="133" width="70" height="30" as="geometry"/>
                </mxCell>
                <mxCell id="40" value="可用性" style="rounded=0;whiteSpace=wrap;html=1;" vertex="1" parent="42">
                    <mxGeometry x="222" y="183" width="70" height="30" as="geometry"/>
                </mxCell>
                <mxCell id="43" value="对SSOOS功能的安全保障" style="swimlane;horizontal=0;" vertex="1" parent="1">
                    <mxGeometry x="1160" y="723" width="125" height="240" as="geometry"/>
                </mxCell>
                <mxCell id="45" value="测试" style="rounded=0;whiteSpace=wrap;html=1;" vertex="1" parent="43">
                    <mxGeometry x="39" y="150" width="70" height="30" as="geometry"/>
                </mxCell>
                <mxCell id="46" value="脆弱性评定" style="rounded=0;whiteSpace=wrap;html=1;" vertex="1" parent="43">
                    <mxGeometry x="39" y="190" width="70" height="30" as="geometry"/>
                </mxCell>
                <mxCell id="52" value="指导文档" style="rounded=0;whiteSpace=wrap;html=1;" vertex="1" parent="43">
                    <mxGeometry x="39" y="70" width="70" height="30" as="geometry"/>
                </mxCell>
                <mxCell id="53" value="开发" style="rounded=0;whiteSpace=wrap;html=1;" vertex="1" parent="43">
                    <mxGeometry x="39" y="30" width="70" height="30" as="geometry"/>
                </mxCell>
                <mxCell id="56" value="LifeCycle&amp;nbsp;&lt;br&gt;支持" style="rounded=0;whiteSpace=wrap;html=1;" vertex="1" parent="43">
                    <mxGeometry x="39" y="110" width="70" height="30" as="geometry"/>
                </mxCell>
                <mxCell id="61" value="" style="swimlane;startSize=0;" vertex="1" parent="1">
                    <mxGeometry x="40" y="723" width="681" height="417" as="geometry"/>
                </mxCell>
                <mxCell id="62" value="自动驾驶操作系统" style="swimlane;horizontal=0;" vertex="1" parent="61">
                    <mxGeometry x="26" y="23.5" width="559" height="296.5" as="geometry"/>
                </mxCell>
                <mxCell id="63" value="功能软件" style="swimlane;horizontal=0;" vertex="1" parent="62">
                    <mxGeometry x="33" y="7.5" width="507" height="91.5" as="geometry"/>
                </mxCell>
                <mxCell id="64" value="算法接口API" style="rounded=0;whiteSpace=wrap;html=1;" vertex="1" parent="63">
                    <mxGeometry x="38" y="8.25" width="292" height="21.75" as="geometry"/>
                </mxCell>
                <mxCell id="65" value="其他接口API" style="rounded=0;whiteSpace=wrap;html=1;" vertex="1" parent="63">
                    <mxGeometry x="340" y="8.25" width="148" height="21.75" as="geometry"/>
                </mxCell>
                <mxCell id="66" value="自动驾驶通用框架（感知、规划、控制）" style="rounded=0;whiteSpace=wrap;html=1;" vertex="1" parent="63">
                    <mxGeometry x="38" y="36.5" width="450" height="21.75" as="geometry"/>
                </mxCell>
                <mxCell id="67" value="深度学习和视觉模块" style="rounded=0;whiteSpace=wrap;html=1;" vertex="1" parent="63">
                    <mxGeometry x="38" y="65" width="120" height="21.75" as="geometry"/>
                </mxCell>
                <mxCell id="68" value="传感器模块" style="rounded=0;whiteSpace=wrap;html=1;" vertex="1" parent="63">
                    <mxGeometry x="168" y="65" width="70" height="21.75" as="geometry"/>
                </mxCell>
                <mxCell id="69" value="网联模块" style="rounded=0;whiteSpace=wrap;html=1;" vertex="1" parent="63">
                    <mxGeometry x="251" y="65" width="70" height="21.75" as="geometry"/>
                </mxCell>
                <mxCell id="70" value="云控模块" style="rounded=0;whiteSpace=wrap;html=1;" vertex="1" parent="63">
                    <mxGeometry x="335" y="65" width="70" height="21.75" as="geometry"/>
                </mxCell>
                <mxCell id="71" value="其他模块" style="rounded=0;whiteSpace=wrap;html=1;" vertex="1" parent="63">
                    <mxGeometry x="418" y="65" width="70" height="21.75" as="geometry"/>
                </mxCell>
                <mxCell id="72" value="功能软件" style="swimlane;horizontal=0;" vertex="1" parent="62">
                    <mxGeometry x="33" y="103.5" width="387" height="96.5" as="geometry"/>
                </mxCell>
                <mxCell id="73" value="POSIX/ARA" style="rounded=0;whiteSpace=wrap;html=1;" vertex="1" parent="72">
                    <mxGeometry x="38" y="10" width="82" height="21.75" as="geometry"/>
                </mxCell>
                <mxCell id="74" value="管理平面和实时控制平面" style="rounded=0;whiteSpace=wrap;html=1;" vertex="1" parent="72">
                    <mxGeometry x="127" y="10" width="172" height="21.75" as="geometry"/>
                </mxCell>
                <mxCell id="75" value="分布式通信" style="rounded=0;whiteSpace=wrap;html=1;" vertex="1" parent="72">
                    <mxGeometry x="305" y="10" width="80" height="21.75" as="geometry"/>
                </mxCell>
                <mxCell id="76" value="Linux 等" style="rounded=0;whiteSpace=wrap;html=1;" vertex="1" parent="72">
                    <mxGeometry x="38" y="40" width="82" height="50" as="geometry"/>
                </mxCell>
                <mxCell id="77" value="Linux 优化/其他安全实时内核" style="rounded=0;whiteSpace=wrap;html=1;" vertex="1" parent="72">
                    <mxGeometry x="127" y="40" width="172" height="21.75" as="geometry"/>
                </mxCell>
                <mxCell id="78" value="Hypervisor 及 BSP Drivers" style="rounded=0;whiteSpace=wrap;html=1;" vertex="1" parent="72">
                    <mxGeometry x="126.5" y="68" width="172" height="21.75" as="geometry"/>
                </mxCell>
                <mxCell id="79" value="AUTOSAR RTE" style="rounded=0;whiteSpace=wrap;html=1;" vertex="1" parent="62">
                    <mxGeometry x="430" y="113.5" width="110" height="26.5" as="geometry"/>
                </mxCell>
                <mxCell id="80" value="Safety RTOS" style="rounded=0;whiteSpace=wrap;html=1;" vertex="1" parent="62">
                    <mxGeometry x="430" y="150" width="40" height="50" as="geometry"/>
                </mxCell>
                <mxCell id="81" value="BSW" style="rounded=0;whiteSpace=wrap;html=1;" vertex="1" parent="62">
                    <mxGeometry x="480" y="150" width="60" height="19.12" as="geometry"/>
                </mxCell>
                <mxCell id="82" value="MCAL" style="rounded=0;whiteSpace=wrap;html=1;" vertex="1" parent="62">
                    <mxGeometry x="480" y="180.88" width="60" height="19.12" as="geometry"/>
                </mxCell>
                <mxCell id="83" value="硬件平台" style="swimlane;horizontal=0;" vertex="1" parent="62">
                    <mxGeometry x="33" y="206" width="526" height="84" as="geometry"/>
                </mxCell>
                <mxCell id="84" value="异构分布硬件架构" style="rounded=0;whiteSpace=wrap;html=1;" vertex="1" parent="83">
                    <mxGeometry x="38" y="12.5" width="482" height="21.75" as="geometry"/>
                </mxCell>
                <mxCell id="85" value="AI 单元 GPU/FPGA/ASIC AI 芯片 + CPU" style="rounded=0;whiteSpace=wrap;html=1;" vertex="1" parent="83">
                    <mxGeometry x="39" y="42.5" width="231" height="21.75" as="geometry"/>
                </mxCell>
                <mxCell id="86" value="计算单元-多核-多CPU" style="rounded=0;whiteSpace=wrap;html=1;" vertex="1" parent="83">
                    <mxGeometry x="276" y="42.5" width="124" height="21.75" as="geometry"/>
                </mxCell>
                <mxCell id="87" value="控制单元-MCU" style="rounded=0;whiteSpace=wrap;html=1;" vertex="1" parent="83">
                    <mxGeometry x="405" y="42.5" width="116" height="21.75" as="geometry"/>
                </mxCell>
                <mxCell id="88" value="工具链（开发、仿真、调试、测试等）" style="rounded=0;whiteSpace=wrap;html=1;" vertex="1" parent="61">
                    <mxGeometry x="630" y="23" width="39" height="300" as="geometry"/>
                </mxCell>
                <mxCell id="89" value="操作系统安全子系统功能及安全保障" style="rounded=0;whiteSpace=wrap;html=1;" vertex="1" parent="61">
                    <mxGeometry x="592" y="23" width="30" height="300" as="geometry"/>
                </mxCell>
                <mxCell id="90" value="车辆平台" style="rounded=0;whiteSpace=wrap;html=1;" vertex="1" parent="61">
                    <mxGeometry x="26" y="390" width="74" height="21.75" as="geometry"/>
                </mxCell>
                <mxCell id="91" value="外围硬件" style="rounded=0;whiteSpace=wrap;html=1;" vertex="1" parent="61">
                    <mxGeometry x="26" y="360" width="74" height="21.75" as="geometry"/>
                </mxCell>
                <mxCell id="92" value="摄像头、雷达、GPS、惯导等传感器" style="rounded=0;whiteSpace=wrap;html=1;" vertex="1" parent="61">
                    <mxGeometry x="111" y="360" width="269" height="21.75" as="geometry"/>
                </mxCell>
                <mxCell id="93" value="V2X （云控、地图等）" style="rounded=0;whiteSpace=wrap;html=1;" vertex="1" parent="61">
                    <mxGeometry x="391" y="360" width="139" height="21.75" as="geometry"/>
                </mxCell>
                <mxCell id="94" value="动力、底盘控制等" style="rounded=0;whiteSpace=wrap;html=1;" vertex="1" parent="61">
                    <mxGeometry x="541" y="360" width="129" height="21.75" as="geometry"/>
                </mxCell>
                <mxCell id="95" value="自动驾驶车辆工程、功能需求、平台技术、整车集成" style="rounded=0;whiteSpace=wrap;html=1;" vertex="1" parent="61">
                    <mxGeometry x="111" y="390" width="559" height="21.75" as="geometry"/>
                </mxCell>
                <mxCell id="96" value="GMSL/CSI，ETH，CAN..." style="text;html=1;strokeColor=none;fillColor=none;align=center;verticalAlign=middle;whiteSpace=wrap;rounded=0;" vertex="1" parent="61">
                    <mxGeometry x="141" y="327" width="179" height="30" as="geometry"/>
                </mxCell>
                <mxCell id="97" value="4G/5G/LTE..." style="text;html=1;strokeColor=none;fillColor=none;align=center;verticalAlign=middle;whiteSpace=wrap;rounded=0;" vertex="1" parent="61">
                    <mxGeometry x="368" y="327" width="179" height="30" as="geometry"/>
                </mxCell>
                <mxCell id="98" value="CAN/FlexRay" style="text;html=1;strokeColor=none;fillColor=none;align=center;verticalAlign=middle;whiteSpace=wrap;rounded=0;" vertex="1" parent="61">
                    <mxGeometry x="543" y="327" width="120" height="30" as="geometry"/>
                </mxCell>
            </root>
        </mxGraphModel>
    </diagram>
</mxfile>